<?xml version="1.0" encoding="utf-8"?>
<!-- Generator: Adobe Illustrator 18.1.1, SVG Export Plug-In . SVG Version: 6.00 Build 0)  -->
<!DOCTYPE svg PUBLIC "-//W3C//DTD SVG 1.1//EN" "http://www.w3.org/Graphics/SVG/1.1/DTD/svg11.dtd">
<svg version="1.1" xmlns="http://www.w3.org/2000/svg" xmlns:xlink="http://www.w3.org/1999/xlink" x="0px" y="0px"
	 viewBox="0 0 203.3 258.2" enable-background="new 0 0 203.3 258.2" xml:space="preserve">
<g id="Layer_2">
	<path fill="#FFFFFF" d="M47.6,111.9c0,0-0.8-5.3,0.1-10.4s9.5-35.8,9.5-35.8l23.6-15.8l38.5,6.5L136,80.9l8.6,26.5l1.3,4.4
		l-2.1,18.8l-2.5,37.9l-13.4,70.9l-6.3,15.8l-54.2,0l-18.2-108l2.9-15.1L47.3,120L47.6,111.9z"/>
</g>
<g id="Layer_1">
	<g id="H1JJZC_1_">
		<g>
			<g>
				
					<linearGradient id="SVGID_1_" gradientUnits="userSpaceOnUse" x1="-62.7396" y1="65.2025" x2="133.8205" y2="65.2025" gradientTransform="matrix(1 0 0 1 65.7277 69.953)">
					<stop  offset="0" style="stop-color:#662D91"/>
					<stop  offset="1" style="stop-color:#1B1464"/>
				</linearGradient>
				<path fill="url(#SVGID_1_)" d="M112.7,255.2c2-10.4,4-20.8,6-31.3c-0.9,1.1-1.6,2.1-1.9,2.5c1.1-3.4,2.7-7.4,3.8-11.5
					c1.1-4.2,1.7-8.6,2.6-12.9c0.9-4.3,1.9-8.6,2.9-12.8c1-4.2,2.1-8.4,3-12.7c0.9-4.3,1.7-8.6,2.4-12.9c0.7-4.2,1.1-8.5,1.4-10.9
					c-5.2,7.4-11.4,16-17.5,24.6c-0.4-0.4-0.8-0.9-1.1-1.3c-1.7,0.9-3.3,1.7-5.7,2.9c0.1-0.3-0.1,0.2-0.2,0.5
					c-0.4-0.4-0.8-0.7-1.2-1.1c-0.1-0.3-0.2-0.6-0.3-0.9c-1.5,0.1-3,0.2-5.1,0.3c0.9-1.1,1.6-1.9,2.3-2.8c-0.4-0.4-0.7-0.8-1.1-1.2
					c0.8,0,1.5,0.1,2.3,0c0.4,0,0.7-0.2,1.1-0.3c-0.4-0.6-0.7-1.2-1.1-1.9c-0.2-0.3-0.5-0.8-0.4-0.9c0.8-1.3,1.7-2.6,2.6-3.9
					c-0.6,0.2-1.4,0.5-2.5,0.9c0.4-0.9,0.6-1.4,0.8-2c-1-0.1-2-0.2-2.8-0.2c-0.5-0.8-0.9-1.5-1.3-2.2c-0.4-0.1-1-0.1-1.5-0.2
					c0.1-0.2,0.1-0.5,0.2-0.5c1.1,0.1,2.1,0.2,3.4,0.3c-0.1-0.5-0.4-1.4-0.8-2.7c1.9,1.4,3.6,2.6,5.2,3.8c0.2-0.3,0.3-0.5,0.5-0.8
					c-0.7-0.4-1.3-0.9-2-1.3c0.1-0.2,0.3-0.3,0.4-0.5c0.9,0.6,1.8,1.2,3.3,2.1c0.1-0.6,0.2-1.4,0.3-2.3c0-0.5-0.1-1-0.1-1.5
					c0.4,0.3,0.7,0.6,1.1,0.9c0.6,0.6,1.1,1.2,1.9,2.2c-0.6-1.5-0.9-2.6-1.3-3.6c0.2-0.1,0.3-0.1,0.5-0.2c0.1,0.4,0.3,0.7,0.4,1
					c0.4,0,0.8-0.1,0.7-0.1c1.4-1.4,2.6-2.5,3.8-3.6c-0.4-0.5-0.8-0.9-0.8-0.9c1-0.5,2-1.1,2.9-1.5c0.1-0.6,0.1-1.1,0.1-1.5
					c0.4,0.1,0.7,0.1,1.1,0.2c-0.7,3-1.5,6.1-2.2,8.9c0.4,0.2,1.4,0.7,2.6,1.4c3.5-5.5,7.2-11.6,11-17.7c-0.1-0.1-0.3-0.2-0.4-0.3
					c0.8-1.5,1.5-3,2.3-4.5c-0.2-0.1-0.4-0.2-0.7-0.3c1-2.2,2-4.4,2.7-5.9c1.3-0.5,2.2-0.8,2.9-1.1c0.4,0.3,0.9,0.8,1,0.7
					c0.6-0.3,1.5-0.8,1.6-1.3c1.1-6.5,2.1-13,3.2-19.4c0.1-0.5,0.2-0.9,1-1.5c1,4.7,2,9.4,2.9,14.2c0.1,0.3-0.4,0.7-0.6,1.1
					c-1,2-0.8,3.3,1.5,4.2c9.9,3.9,19.7,7.7,29.5,11.9c6.9,3,13.6,6.5,20.4,9.8c0,33.8,0,67.5,0,101.3c0,0.3-0.6,0.9-0.9,0.9
					C169.9,255.2,141.3,255.2,112.7,255.2z"/>
				
					<linearGradient id="SVGID_2_" gradientUnits="userSpaceOnUse" x1="-62.7396" y1="65.2025" x2="133.8205" y2="65.2025" gradientTransform="matrix(1 0 0 1 65.7277 69.953)">
					<stop  offset="0" style="stop-color:#662D91"/>
					<stop  offset="1" style="stop-color:#1B1464"/>
				</linearGradient>
				<path fill="url(#SVGID_2_)" d="M80.2,247.9c-0.1,0.1-0.2,0.2-0.2,0.3c-0.1-0.3,0-0.6,0-0.8l0.1-2.1c-0.1-0.5-0.1-1-0.2-1.5
					c0.1,0.5,0.2,1,0.2,1.5l0-0.6c-1-4.4-2.4-8-2.7-11.8c-0.2-3.6,0.7-7.4,1.1-11.3c-1,2.5-1.9,4.7-2.8,6.9
					c-0.3,0.6-0.7,1.1-1.1,1.6c-0.4-0.5-1.1-1-1.2-1.5c-1.5-7.7-2.9-15.5-4.5-23.3c-3.2-15.6-6.7-31.2-9.8-46.8
					c-0.7-3.7-0.7-7.6-1.1-11.4c0.3-0.1,0.6-0.1,1-0.2c0.6,1.8,1.3,3.5,2.1,5.7c0,0.2,0.2,1,0.3,1.6c0.7-0.6,1.2-1,2-1.7
					c-0.2,0.6-0.5,1.2-0.3,1.4c0.3,0.4,0.8,0.6,1.3,0.9c-0.2-0.7-0.5-1.4-0.7-2.1c0-0.2-0.1-0.3-0.2-0.4c-2.3-4.1-4.5-8.2-6.8-12.2
					c-0.2-0.4-0.8-0.6-1.1-1c-0.1,0.3-0.2,0.6-0.3,0.9c-0.4-0.8,0.1-1.4,0-1.9c0-0.4-0.7-0.7-1-1c-0.3,0.2-0.6,0.3-0.9,0.5
					c-1.9-8.7-3.9-17.4-5.7-25.6c-2.5,2.3-3.2,6.4-2.6,10.5c0.3,2,1.9,3.8,2.8,5.8c0.6,1.3,3.6,2.7,0.5,4.3
					c-14,7.3-27.9,14.6-43.2,18.8c-0.5,0.1-1.2,0.8-1.3,1.3c-0.3,1.6-0.3,3.3-0.4,5c-0.1,4.5-0.3,9-0.4,13.4c0,27.8,0,55.5,0,83.3
					c0,0.3,0.6,0.9,0.9,0.9c26.6,0,53.1,0,79.7,0C80.6,253.6,80.3,250.7,80.2,247.9z"/>
				
					<linearGradient id="SVGID_3_" gradientUnits="userSpaceOnUse" x1="-62.7396" y1="65.2025" x2="133.8205" y2="65.2025" gradientTransform="matrix(1 0 0 1 65.7277 69.953)">
					<stop  offset="0" style="stop-color:#662D91"/>
					<stop  offset="1" style="stop-color:#1B1464"/>
				</linearGradient>
				<path fill="url(#SVGID_3_)" d="M110.5,255.2c-0.5-7.3-1-14.5-1.6-21.8c-0.1-0.9-0.6-1.8-0.9-2.7c0.1,0,0.2,0,0.3,0
					c-1.7-5.3-3.4-10.6-5.1-16.1c-1.8,4.6-2.7,9-5.1,12.3c-4.6,6.3-10.1,12.1-15.2,18c-0.9,1-1.8,2-2.7,2.9c0.1,2.9,0.4,5.8,3.5,7.3
					c1.3,0,2.5,0,3.8,0c3.1-3.5,6.2-7,9.1-10.6c2.9-3.6,5.6-7.4,8.3-11.1c0.3-0.5,0.7-0.9,1.3-1.2c0.2-0.2,0.3-0.4,0.6-0.7
					c-0.2,0.2-0.4,0.5-0.6,0.7c0.1,0,0.2-0.1,0.3-0.1c-0.3,0.5-0.6,0.9-0.9,1.4c-0.1,0.9,0.4,1.7,1,2.8c0.2-0.1,0.3-0.2,0.5-0.2
					c-2.9,3.8-5.7,7.7-8.7,11.4c-2.1,2.6-4.3,5.1-6.5,7.6c1,0,1.9,0,2.9,0c0-0.6-0.1-1.1-0.1-1.8c0,0,0.5,0,1-0.1
					c-0.1-0.2-0.2-0.4-0.3-0.6c0.2-0.1,0.3-0.3,0.5-0.4c0.6,0.7,1.2,1.4,2,2.4c0.7-1.1,1.4-2.4,2.2-3.6c-0.2-0.1-0.4-0.2-0.6-0.3
					c0.4-0.4,0.8-0.9,1.3-1.4c0.1,0.3,0.1,0.6,0.3,1.4c0.3-1.1,0.5-1.7,0.7-2.3c0.1,0,0.2,0.1,0.3,0.1c-0.4,1-0.9,2.1-1.3,3.2
					c0.5,0,0.9-0.1,1.4-0.1c-0.5,0.6-0.9,1-1.2,1.5c0.1,0.2,0.2,0.4,0.3,0.5c1.1-0.6,2.2-1.2,3.3-1.7c0,0,0.1,0.1,0.1,0.1
					c-0.4,0.2-0.7,0.4-1.4,0.7c0.8,0.2,1.1,0.2,2,0.5c-1.2,0.2-1.7,0.3-2.4,0.4c0.1,0.2,0.2,0.6,0.3,1.2c-0.6-0.3-0.9-0.5-1.3-0.8
					c0,0.4,0,0.7,0.1,1c0.6,0,1.3,0,1.9,0c1.2-1.6,2.5-3.2,3.7-4.9c0.2,0.1,0.3,0.2,0.5,0.3c-1,1.5-2,3-3,4.5
					C106.8,255.2,108.7,255.2,110.5,255.2z M85.8,251.7c-0.7,1.1-1.8,1.9-2.8,2.8c-0.2-0.2-0.3-0.5-0.5-0.7c0.4-0.2,0.8-0.4,1.4-0.6
					l-2.1-1.5c0.8-0.7,1.6-1.5,2.4-2.2C84.7,250.2,85.9,251.4,85.8,251.7z M102.5,231.7c-0.1,0.6-0.3,1.2-0.6,1.7
					c-0.3,0.5-0.8,1-1.3,1c-0.3,0-0.7-0.8-0.7-0.8c-0.8-0.7-1.2-1-1.7-1.4c0.8-0.9,1.6-1.9,2.4-2.8c0.2,0.2,0.4,0.5,0.3,0.4
					c0.8-0.4,1.5-0.8,2.3-1.2C102.9,229.7,102.7,230.7,102.5,231.7z"/>
				
					<linearGradient id="SVGID_4_" gradientUnits="userSpaceOnUse" x1="-62.7396" y1="65.2025" x2="133.8205" y2="65.2025" gradientTransform="matrix(1 0 0 1 65.7277 69.953)">
					<stop  offset="0" style="stop-color:#662D91"/>
					<stop  offset="1" style="stop-color:#1B1464"/>
				</linearGradient>
				<path fill="url(#SVGID_4_)" d="M105.7,233.6c-1.3,2.1-2.5,4.3-4.1,6.3c-3.9,4.8-8.1,9.3-12.2,14c-0.4,0.4-0.6,0.9-0.9,1.4
					c0.8,0,1.6,0,2.4,0c4.4-5.4,8.9-10.8,13.3-16.2c0.8-0.9,1.4-2,2.5-2.6C106.1,235.3,105.6,234.5,105.7,233.6z"/>
				
					<linearGradient id="SVGID_5_" gradientUnits="userSpaceOnUse" x1="-62.7396" y1="65.2025" x2="133.8205" y2="65.2025" gradientTransform="matrix(1 0 0 1 65.7277 69.953)">
					<stop  offset="0" style="stop-color:#662D91"/>
					<stop  offset="1" style="stop-color:#1B1464"/>
				</linearGradient>
				<path fill="url(#SVGID_5_)" d="M90.1,196.4C90.1,196.4,90.1,196.4,90.1,196.4c0.1,0.1,0.2,0.1,0.3,0.2
					C90.3,196.5,90.2,196.4,90.1,196.4z"/>
				
					<linearGradient id="SVGID_6_" gradientUnits="userSpaceOnUse" x1="-62.7396" y1="65.2025" x2="133.8205" y2="65.2025" gradientTransform="matrix(1 0 0 1 65.7277 69.953)">
					<stop  offset="0" style="stop-color:#662D91"/>
					<stop  offset="1" style="stop-color:#1B1464"/>
				</linearGradient>
				<path fill="url(#SVGID_6_)" d="M80,247.3c0-0.1,0.1-0.3,0.2-0.4c0-0.6-0.1-1.2-0.1-1.7L80,247.3z"/>
				
					<linearGradient id="SVGID_7_" gradientUnits="userSpaceOnUse" x1="-62.7396" y1="65.2025" x2="133.8205" y2="65.2025" gradientTransform="matrix(1 0 0 1 65.7277 69.953)">
					<stop  offset="0" style="stop-color:#662D91"/>
					<stop  offset="1" style="stop-color:#1B1464"/>
				</linearGradient>
				<path fill="url(#SVGID_7_)" d="M100.8,215.7c0.3,0.3,0.3,0.7,0.3,1c0.1,0,0.2,0,0.3,0c0.1-2.3-0.3-4.8-0.3-7.1
					c0-1.7,0.3-3.4,0.3-5.1c0-1.4-0.2-2.8-0.6-4c-0.3-0.9-1.4-1.7-1.6-2.6c-0.8-3.9-4.1-2.3-6.3-3.1c-0.5-0.2-1-0.4-1.6-0.7
					c-0.3,0.6-0.7,1.5-1.2,2.4c0,0,0,0,0,0c0,0,0,0,0,0c0.1,0.1,0.2,0.1,0.3,0.2c3.1,1.6,6.1,3.1,9.2,4.7c-0.1,0.3-0.3,0.5-0.4,0.8
					c-0.1-0.1-0.2-0.2-0.4-0.2c0.1,0.8,1.4,1.6,1.3,2.4c0.1,0,0.1,0.1,0.2,0.1c-0.1,0.1-0.2,0.3-0.2,0.4c-0.1,0-0.1-0.1-0.2-0.1
					c0,0,0,0,0,0c0,0,0,0,0,0c-3.7-2-7.5-4.1-11.4-6.2c-0.6,1.5-2.1,3.7-1.7,4.2c2.6,3.1,5.7,6,8.6,8.8c0.6,0.5,1.4,0.8,2.1,1.2
					c-0.1,0.2-0.2,0.4-0.4,0.6c-1.8-1.1-3.6-2.2-5.4-3.3c0.2,0.7,0.5,1.5,0.5,1.5c-0.7,1.8-1.2,2.9-1.9,4.5c1-0.5,1.5-0.7,1.9-1
					c0.5-0.3,1-0.6,1.9-1.1c-9.6,7.5-10.7,18.4-13.3,28.5c6.4-8.7,15.4-15.4,19.5-25.7c-0.1,0-0.3,0-0.5,0c0.2,0,0.4,0,0.5,0
					c0.1-0.2,0.2-0.4,0.2-0.6c-0.1,0.2-0.1,0.4-0.2,0.6c0.3,0,0.5,0,0.7,0C101.1,216.4,101.2,216,100.8,215.7z M97.6,217
					c0,0-0.5,0.5-1,1.2c-0.1-1.2-0.1-2.2-0.2-3.5c0,0,0,0-0.1,0c-0.4,0.7-0.7,1-0.9,1.3c-0.3-0.3-0.5-0.6-0.8-0.9
					c0.6-0.1,1.2-0.2,1.7-0.4c0,0,0,0,0.1-0.1c0,0,0,0,0,0.1c0.5-0.1,0.9-0.2,1.3-0.3C97.7,215.2,97.7,215.8,97.6,217z"/>
				
					<linearGradient id="SVGID_8_" gradientUnits="userSpaceOnUse" x1="-62.7396" y1="65.2025" x2="133.8205" y2="65.2025" gradientTransform="matrix(1 0 0 1 65.7277 69.953)">
					<stop  offset="0" style="stop-color:#662D91"/>
					<stop  offset="1" style="stop-color:#1B1464"/>
				</linearGradient>
				<path fill="url(#SVGID_8_)" d="M101.1,216.7c-0.1,0.5-0.4,0.9,0.3,1c0-0.3,0-0.6,0.1-1C101.3,216.7,101.1,216.7,101.1,216.7z"/>
				
					<linearGradient id="SVGID_9_" gradientUnits="userSpaceOnUse" x1="-62.7396" y1="65.2025" x2="133.8205" y2="65.2025" gradientTransform="matrix(1 0 0 1 65.7277 69.953)">
					<stop  offset="0" style="stop-color:#662D91"/>
					<stop  offset="1" style="stop-color:#1B1464"/>
				</linearGradient>
				<path fill="url(#SVGID_9_)" d="M101.1,216.7c-0.2,0-0.4,0-0.7,0c-3.3,11.6-14,17.9-20.3,27.9l0,0.6c0.1,0.6,0.1,1.1,0.1,1.7
					c0-0.1,0.1-0.1,0.1-0.2c3.5-4,7-8.1,10.5-12.1c4.1-4.8,9.1-9,10.3-15.6c0.1-0.5,0.1-0.9,0.2-1.4
					C100.6,217.5,100.9,217.1,101.1,216.7z"/>
				
					<linearGradient id="SVGID_10_" gradientUnits="userSpaceOnUse" x1="-62.7396" y1="65.2025" x2="133.8205" y2="65.2025" gradientTransform="matrix(1 0 0 1 65.7277 69.953)">
					<stop  offset="0" style="stop-color:#662D91"/>
					<stop  offset="1" style="stop-color:#1B1464"/>
				</linearGradient>
				<path fill="url(#SVGID_10_)" d="M98.8,201.8c-2.8-1.7-5.6-3.5-8.4-5.2c-0.1-0.1-0.2-0.1-0.3-0.2c-0.4,0.5-0.8,1-1,1.4
					c3.8,2.2,7.4,4.3,11,6.4C100.2,203.4,98.9,202.6,98.8,201.8z"/>
				
					<linearGradient id="SVGID_11_" gradientUnits="userSpaceOnUse" x1="-62.7396" y1="65.2025" x2="133.8205" y2="65.2025" gradientTransform="matrix(1 0 0 1 65.7277 69.953)">
					<stop  offset="0" style="stop-color:#662D91"/>
					<stop  offset="1" style="stop-color:#1B1464"/>
				</linearGradient>
				<path fill="url(#SVGID_11_)" d="M83.8,253.1c-0.7-0.5-1.4-1-2.1-1.5L83.8,253.1z"/>
				
					<linearGradient id="SVGID_12_" gradientUnits="userSpaceOnUse" x1="-62.7396" y1="65.2025" x2="133.8205" y2="65.2025" gradientTransform="matrix(1 0 0 1 65.7277 69.953)">
					<stop  offset="0" style="stop-color:#662D91"/>
					<stop  offset="1" style="stop-color:#1B1464"/>
				</linearGradient>
				<path fill="url(#SVGID_12_)" d="M96.4,214.6C96.4,214.6,96.4,214.6,96.4,214.6C96.4,214.6,96.4,214.6,96.4,214.6
					C96.4,214.6,96.4,214.6,96.4,214.6z"/>
				
					<linearGradient id="SVGID_13_" gradientUnits="userSpaceOnUse" x1="-62.7396" y1="65.2025" x2="133.8205" y2="65.2025" gradientTransform="matrix(1 0 0 1 65.7277 69.953)">
					<stop  offset="0" style="stop-color:#662D91"/>
					<stop  offset="1" style="stop-color:#1B1464"/>
				</linearGradient>
				<path fill="url(#SVGID_13_)" d="M149.1,95.9c0.1,0.6,0.2,1.2,0.3,1.8c-2.5-2.3-1.2,1.9-1.4,3.8c-0.1,1.6-0.2,3.2-0.7,4.8
					c-0.9,3-2.3,5.7-6.1,4.5c-5.8-1.8-1-9.8-4.5-11.9c-0.2,2.5-0.8,3.3-1.6,2.3c0.3,0.3-3.7,5-3.5,4.2c-0.3-0.6-0.7-0.5-1.2,0.3
					c0.6,1.1,1.3,2.2,1.9,3.3c-2.9,0.3-5.9,0.6-8.8,0.9c1.3-0.9,2.6-1.9,3.9-2.8c-3.6,0.4-7.3,0.7-10.9,1.1
					c-0.1-2.1-6.9-1.5-8.9-1.3c0.5,2.6,0.5,3.5-0.4,6c0.4-0.5,0.7-1,1.1-1.5c-0.3,4-3.5,4.4-1.1,8.1c0.6,1,3,1.4,4,2.9
					c1.2,1.8,0.8,4.2,2.4,6.1c-0.2-0.5-0.4-1.1-0.6-1.6c1.8,1.2,5.7,2.5,5.8,5c0.2,2.8-1.6,4.5-3,1.2c-2.2,2.7-1.6,2.1-2.9-0.3
					c0,3.1,2.3,4,5,2.1c-0.3,0.7-3.7,6.8-3.3,7c-1.3-0.8-3.2,4.8-1.8,2.1c0.7,0.6-2.1,2.7-2.6,3.1c3.3,0-4.3,7.4-5.1,8.7
					c-0.7-0.4,0.7-2.1-1.4-1.5c-1.6,0.4-2.1,3.5-3.5,1.3c1.3-0.3,2.3-1.1,3-2.4c-1.3,0.4-5.4,1.5-6.9-1.1c-0.6,0.9-1.2,1.7-1.8,2.6
					c0.5-2.1,0.2-4.3,2.3-3.1c-1.4-3.3-3-3.2-6.4-4c0.6,1.5-1.7,0.7-2.9,0.6c1.2,3.5-0.3,1.7,1.9,5.1c-7.1-2.9-9.5-10.1-13.4-16.2
					c0.1,0.6,0.4,0.8,0.7,0.5c-1.4-2.7-0.7-2.1,2-2.7c2.7-0.7,10.4-0.7,10.4,1.9c-0.8-0.1-8.2-0.6-8.2-0.5c2.9,4.2,4.5,4.5,9.2,5.7
					c2.3,0.6,10.2,3.2,12.4,0.8c4.8-5.1-11.7-3.4-11-6.5c4.4,1,8.8-0.3,13.2-0.2c4.1,0.1,4.7-2.2,1-0.8c3-2.7-5.7-1.1-5.3-4.9
					c0.3-2.8,1.9-2.5,1.8-6c-0.1-2-1-4.1-1.4-6.1c-0.1,1-0.3,2-0.4,3c-0.4-3.1,0.8-3.4,0.9-7.1c0.1-2.1-0.5-4.5-0.2-6.5
					c0.7-3.8,1.1-3.8,4.8-6.4c-1.2-0.4,0.1-1.4,0.7-2.4c-0.6,0.5-1.8,2-2.7,1.6c3.3-5.6,4.9-6.1,11.3-8.2c0.8-0.3,13.5-3.6,13.5-3
					c0,0.1,5,0.9,5.6-0.4c0.7-1.8-1.9-3-1.5-4.6c-0.2,1.2-0.8,0.7-1.7-1.4c0.5,1.4,0.4,2-0.5,2c-0.2-3-3.1-5.7-0.9-7.9
					c-1.8-0.7-7-4.5-8.2-3.4c0.2-1.4-0.2-9.4-2.5-9.9c-0.3-0.2-6.3,2.7-7.6,3.1c-3.3,1-5.6,1.1-8.8-0.2c-7-2.9-10.9-7.5-18.6-7.6
					c-5.2-0.1-14.9-1.8-17.8,3.9c-2.4,4.7,4.3,12.6-2,16.3c1.8,1.5-2.9,5.4-4.7,5.7c1.1,0.7-0.6,3.6-0.8,4.1
					c-1.7,5.6-2.6,11.6-3.9,17.3c-1.5-1.2-1.8,0.5-2.8,1.8c-1.2-3.5-3.4-16.8-4.3-6.8C42.3,95.6,41,86,42.7,78.9
					c1.2-5,4.1-9.3,5.5-14.1c0.8-2.7,1-7.5,1.3-11c0.4,1.6,2.7-10,2.9-10.7c1.5-7,5.5-10.4,10.4-15c-2.1,1.4-2.3,1.1-0.6-0.8
					c-0.1,0.1-2.9,2.3-3.3,1.9c1.2-1,8-5.9,7.2-6.9c-1.4,1.1-2.9,2.2-4.3,3.3C60.8,24,78.9,14.4,82,16.5c-0.7-0.2-0.9-0.5-0.4-1
					c1.3,0.5,2.6,1,3.9,1.5c1,0.7,1.9,0.6,2.9-0.3c1.4,0.3,2,2.1,3.2,2.1c1.1,0,0.3-2.2,0.8-2.6c0.8-0.6,6.6,3,3.4-0.7
					c3.7,0.2,6.6-0.5,10.1-0.1c4.6,0.5,9.6,3.2,13.8,4.9c9,3.7,16.1,8.9,23,15.6c-0.5,0-1.1,0.1-1.6,0.1c1.7,2.1,2.2,3.9-0.2,3.9
					c1.8,0.8,1.7,1.8-0.2,2.8c2-0.3,1.9,1.4,4,3.6c-2.7,0.2,1.8,1.9,2,2.2c2.8,3.5,3.9,7.6,2.3,12.3c2-2.1,2,1-0.3,0.2
					c1.7,3.1,4.1,7.3,4.3,10c0.2,2.8-0.1,5.8-0.2,8.2c-0.1,1.4-0.1,6.2-0.4,7.5C151.6,91,149.5,91.8,149.1,95.9
					C149.2,96.5,149.2,95.1,149.1,95.9z M112.8,101.7c4.2,0,13.7,2.3,16.4-1.9c-3.1,0.4-4.6-2.2-8.5-1.6
					C119.1,98.5,113.3,99.5,112.8,101.7C115.1,101.7,113.2,99.9,112.8,101.7z M106.8,141.1c-1.3-0.2,0.9-2.2-1.6-2.8
					c-1.3-0.3-2.3,1.3-1.6,2.5c2.4,3.6,6.2,1.3,4.1-2.8C107.2,138.9,106.9,140,106.8,141.1C106.7,141.1,106.9,140.6,106.8,141.1z
					 M110.6,104.9c1.3,0.3,2.7,0.6,4,0.9C113.8,101.7,113.4,103.2,110.6,104.9C111.8,105.2,111.6,104.3,110.6,104.9z"/>
				
					<linearGradient id="SVGID_14_" gradientUnits="userSpaceOnUse" x1="-62.7396" y1="65.2025" x2="133.8205" y2="65.2025" gradientTransform="matrix(1 0 0 1 65.7277 69.953)">
					<stop  offset="0" style="stop-color:#662D91"/>
					<stop  offset="1" style="stop-color:#1B1464"/>
				</linearGradient>
				<path fill="url(#SVGID_14_)" d="M66.7,95.6c0.9,0.8,1.2,1,0.9,0.8c-0.6,0.8-1.3,1.8-2.1,2.7c-0.2,0.2-1,0.2-1.1,0
					c-0.3-0.6-0.5-1.3-0.5-2C63.9,96.6,64,96,64,95.4c0.6-0.8,1.3-1.8,2.1-2.9c0,0-0.3-0.3-0.8-0.8c9-2.1,17,0.7,25.1,2.9
					c-0.2,0.8-0.1,0.5,0,0.2c0.1,0,0.2,0,0.3,0c0,1.4,0,2.7,0,3.6c-1.3,0.1-2,0.2-3,0.3c0.2,0.2,0,0-0.3-0.4
					c-0.1,0.5-0.2,0.9-0.2,0.9C80.6,98,74.1,96.9,66.7,95.6z"/>
				
					<linearGradient id="SVGID_15_" gradientUnits="userSpaceOnUse" x1="-62.7396" y1="65.2025" x2="133.8205" y2="65.2025" gradientTransform="matrix(1 0 0 1 65.7277 69.953)">
					<stop  offset="0" style="stop-color:#662D91"/>
					<stop  offset="1" style="stop-color:#1B1464"/>
				</linearGradient>
				<path fill="url(#SVGID_15_)" d="M71.5,101.1c-0.2,0-0.4-0.1-0.6-0.1c0-0.3,0.1-0.7,0.1-1c6.4,0.8,12.7,1.7,19.2,2.5
					c-0.2,0.3-0.4,0.6-0.4,0.6c0.4,0.5,0.9,1,1.7,1.9c-0.1,0.2-0.2,1.4-0.7,1.6c-0.7,0.3-1.7-0.2-2.8-0.4c-1.7,1.9-7,1.4-8.3-1.2
					c-0.3,0.2-0.6,0.5-0.3,0.2c-1.4,0.1-2.1,0.1-2.9,0.2c0,0-0.1-0.4-0.3-0.5c-1.8-0.5-3.6-0.9-5.4-1.2c-0.6-0.1-1.2,0.1-1.8,0
					c-0.6-0.1-1.1-0.5-1.5-0.9c0,0,0.2-0.7,0.5-0.8c0.9-0.3,1.8-0.6,2.8-0.8c0.2-0.1,0.5,0,0.8,0.1
					C71.4,101.2,71.5,101.1,71.5,101.1z"/>
				
					<linearGradient id="SVGID_16_" gradientUnits="userSpaceOnUse" x1="-62.7396" y1="65.2025" x2="133.8205" y2="65.2025" gradientTransform="matrix(1 0 0 1 65.7277 69.953)">
					<stop  offset="0" style="stop-color:#662D91"/>
					<stop  offset="1" style="stop-color:#1B1464"/>
				</linearGradient>
				<path fill="url(#SVGID_16_)" d="M70,135.5c-1.3-2.8,1.5-6.7,7.4-10c-0.7,0.9-1.2,1.5-1.7,2.2c0.7,0.3,1.3,0.6,2.2,1
					C73.9,129.3,73.9,129.3,70,135.5z"/>
				
					<linearGradient id="SVGID_17_" gradientUnits="userSpaceOnUse" x1="-62.7396" y1="65.2025" x2="133.8205" y2="65.2025" gradientTransform="matrix(1 0 0 1 65.7277 69.953)">
					<stop  offset="0" style="stop-color:#662D91"/>
					<stop  offset="1" style="stop-color:#1B1464"/>
				</linearGradient>
				<path fill="url(#SVGID_17_)" d="M149.1,95.9c0.1-0.8,0.1-1.6,0.2-2.4c0.3-0.2,0.6-0.4,1-0.6c0.2,0.4,0.5,0.8,0.5,1.1
					c0,1.3-0.1,2.6-0.2,4.8C149.8,97.3,149.4,96.6,149.1,95.9z"/>
				
					<linearGradient id="SVGID_18_" gradientUnits="userSpaceOnUse" x1="-62.7396" y1="65.2025" x2="133.8205" y2="65.2025" gradientTransform="matrix(1 0 0 1 65.7277 69.953)">
					<stop  offset="0" style="stop-color:#662D91"/>
					<stop  offset="1" style="stop-color:#1B1464"/>
				</linearGradient>
				<path fill="url(#SVGID_18_)" d="M89,130.3c-0.7-0.9-1.4-1.6-2-2.4c0.1-0.2,0.3-0.4,0.4-0.5c1.3,0.6,2.6,1.2,3.9,1.8
					c-0.1,0.2-0.1,0.3-0.2,0.5c-0.7-0.1-1.3-0.2-2-0.3C89.1,129.6,89,129.9,89,130.3z"/>
				
					<linearGradient id="SVGID_19_" gradientUnits="userSpaceOnUse" x1="-62.7396" y1="65.2025" x2="133.8205" y2="65.2025" gradientTransform="matrix(1 0 0 1 65.7277 69.953)">
					<stop  offset="0" style="stop-color:#662D91"/>
					<stop  offset="1" style="stop-color:#1B1464"/>
				</linearGradient>
				<path fill="url(#SVGID_19_)" d="M51.3,44.3c-0.4,1.9-0.8,3.7-1.2,5.6c-0.3-0.1-0.6-0.1-0.9-0.2c0.5-1.8,0.9-3.7,1.4-5.5
					C50.8,44.2,51,44.2,51.3,44.3z"/>
				
					<linearGradient id="SVGID_20_" gradientUnits="userSpaceOnUse" x1="-62.7396" y1="65.2025" x2="133.8205" y2="65.2025" gradientTransform="matrix(1 0 0 1 65.7277 69.953)">
					<stop  offset="0" style="stop-color:#662D91"/>
					<stop  offset="1" style="stop-color:#1B1464"/>
				</linearGradient>
				<path fill="url(#SVGID_20_)" d="M132.6,132.3c-0.4,1.5-0.8,3.1-1.2,4.6c-0.3-0.1-0.5-0.1-0.8-0.2c0.4-1.5,0.8-3,1.2-4.5
					C132.1,132.2,132.4,132.2,132.6,132.3z"/>
			</g>
		</g>
		<g>
			<g>
				<path d="M112.7,255.2c2-10.4,4-20.8,6-31.3c-0.9,1.1-1.6,2.1-1.9,2.5c1.1-3.4,2.7-7.4,3.8-11.5c1.1-4.2,1.7-8.6,2.6-12.9
					c0.9-4.3,1.9-8.6,2.9-12.8c1-4.2,2.1-8.4,3-12.7c0.9-4.3,1.7-8.6,2.4-12.9c0.7-4.2,1.1-8.5,1.4-10.9c-5.2,7.4-11.4,16-17.5,24.6
					c-0.4-0.4-0.8-0.9-1.1-1.3c-1.7,0.9-3.3,1.7-5.7,2.9c0.1-0.3-0.1,0.2-0.2,0.5c-0.4-0.4-0.8-0.7-1.2-1.1
					c-0.1-0.3-0.2-0.6-0.3-0.9c-1.5,0.1-3,0.2-5.1,0.3c0.9-1.1,1.6-1.9,2.3-2.8c-0.4-0.4-0.7-0.8-1.1-1.2c0.8,0,1.5,0.1,2.3,0
					c0.4,0,0.7-0.2,1.1-0.3c-0.4-0.6-0.7-1.2-1.1-1.9c-0.2-0.3-0.5-0.8-0.4-0.9c0.8-1.3,1.7-2.6,2.6-3.9c-0.6,0.2-1.4,0.5-2.5,0.9
					c0.4-0.9,0.6-1.4,0.8-2c-1-0.1-2-0.2-2.8-0.2c-0.5-0.8-0.9-1.5-1.3-2.2c-0.4-0.1-1-0.1-1.5-0.2c0.1-0.2,0.1-0.5,0.2-0.5
					c1.1,0.1,2.1,0.2,3.4,0.3c-0.1-0.5-0.4-1.4-0.8-2.7c1.9,1.4,3.6,2.6,5.2,3.8c0.2-0.3,0.3-0.5,0.5-0.8c-0.7-0.4-1.3-0.9-2-1.3
					c0.1-0.2,0.3-0.3,0.4-0.5c0.9,0.6,1.8,1.2,3.3,2.1c0.1-0.6,0.2-1.4,0.3-2.3c0-0.5-0.1-1-0.1-1.5c0.4,0.3,0.7,0.6,1.1,0.9
					c0.6,0.6,1.1,1.2,1.9,2.2c-0.6-1.5-0.9-2.6-1.3-3.6c0.2-0.1,0.3-0.1,0.5-0.2c0.1,0.4,0.3,0.7,0.4,1c0.4,0,0.8-0.1,0.7-0.1
					c1.4-1.4,2.6-2.5,3.8-3.6c-0.4-0.5-0.8-0.9-0.8-0.9c1-0.5,2-1.1,2.9-1.5c0.1-0.6,0.1-1.1,0.1-1.5c0.4,0.1,0.7,0.1,1.1,0.2
					c-0.7,3-1.5,6.1-2.2,8.9c0.4,0.2,1.4,0.7,2.6,1.4c3.5-5.5,7.2-11.6,11-17.7c-0.1-0.1-0.3-0.2-0.4-0.3c0.8-1.5,1.5-3,2.3-4.5
					c-0.2-0.1-0.4-0.2-0.7-0.3c1-2.2,2-4.4,2.7-5.9c1.3-0.5,2.2-0.8,2.9-1.1c0.4,0.3,0.9,0.8,1,0.7c0.6-0.3,1.5-0.8,1.6-1.3
					c1.1-6.5,2.1-13,3.2-19.4c0.1-0.5,0.2-0.9,1-1.5c1,4.7,2,9.4,2.9,14.2c0.1,0.3-0.4,0.7-0.6,1.1c-1,2-0.8,3.3,1.5,4.2
					c9.9,3.9,19.7,7.7,29.5,11.9c6.9,3,13.6,6.5,20.4,9.8c0,33.8,0,67.5,0,101.3c0,0.3-0.6,0.9-0.9,0.9
					C169.9,255.2,141.3,255.2,112.7,255.2z"/>
				<path d="M80.2,247.9c-0.1,0.1-0.2,0.2-0.2,0.3c-0.1-0.3,0-0.6,0-0.8l0.1-2.1c-0.1-0.5-0.1-1-0.2-1.5c0.1,0.5,0.2,1,0.2,1.5
					l0-0.6c-1-4.4-2.4-8-2.7-11.8c-0.2-3.6,0.7-7.4,1.1-11.3c-1,2.5-1.9,4.7-2.8,6.9c-0.3,0.6-0.7,1.1-1.1,1.6
					c-0.4-0.5-1.1-1-1.2-1.5c-1.5-7.7-2.9-15.5-4.5-23.3c-3.2-15.6-6.7-31.2-9.8-46.8c-0.7-3.7-0.7-7.6-1.1-11.4
					c0.3-0.1,0.6-0.1,1-0.2c0.6,1.8,1.3,3.5,2.1,5.7c0,0.2,0.2,1,0.3,1.6c0.7-0.6,1.2-1,2-1.7c-0.2,0.6-0.5,1.2-0.3,1.4
					c0.3,0.4,0.8,0.6,1.3,0.9c-0.2-0.7-0.5-1.4-0.7-2.1c0-0.2-0.1-0.3-0.2-0.4c-2.3-4.1-4.5-8.2-6.8-12.2c-0.2-0.4-0.8-0.6-1.1-1
					c-0.1,0.3-0.2,0.6-0.3,0.9c-0.4-0.8,0.1-1.4,0-1.9c0-0.4-0.7-0.7-1-1c-0.3,0.2-0.6,0.3-0.9,0.5c-1.9-8.7-3.9-17.4-5.7-25.6
					c-2.5,2.3-3.2,6.4-2.6,10.5c0.3,2,1.9,3.8,2.8,5.8c0.6,1.3,3.6,2.7,0.5,4.3c-14,7.3-27.9,14.6-43.2,18.8
					c-0.5,0.1-1.2,0.8-1.3,1.3c-0.3,1.6-0.3,3.3-0.4,5c-0.1,4.5-0.3,9-0.4,13.4c0,27.8,0,55.5,0,83.3c0,0.3,0.6,0.9,0.9,0.9
					c26.6,0,53.1,0,79.7,0C80.6,253.6,80.3,250.7,80.2,247.9z"/>
				<linearGradient id="SVGID_21_" gradientUnits="userSpaceOnUse" x1="80.1994" y1="234.8858" x2="110.5081" y2="234.8858">
					<stop  offset="0" style="stop-color:#662D91"/>
					<stop  offset="1" style="stop-color:#1B1464"/>
				</linearGradient>
				<path fill="url(#SVGID_21_)" d="M110.5,255.2c-0.5-7.3-1-14.5-1.6-21.8c-0.1-0.9-0.6-1.8-0.9-2.7c0.1,0,0.2,0,0.3,0
					c-1.7-5.3-3.4-10.6-5.1-16.1c-1.8,4.6-2.7,9-5.1,12.3c-4.6,6.3-10.1,12.1-15.2,18c-0.9,1-1.8,2-2.7,2.9c0.1,2.9,0.4,5.8,3.5,7.3
					c1.3,0,2.5,0,3.8,0c3.1-3.5,6.2-7,9.1-10.6c2.9-3.6,5.6-7.4,8.3-11.1c0.3-0.5,0.7-0.9,1.3-1.2c0.2-0.2,0.3-0.4,0.6-0.7
					c-0.2,0.2-0.4,0.5-0.6,0.7c0.1,0,0.2-0.1,0.3-0.1c-0.3,0.5-0.6,0.9-0.9,1.4c-0.1,0.9,0.4,1.7,1,2.8c0.2-0.1,0.3-0.2,0.5-0.2
					c-2.9,3.8-5.7,7.7-8.7,11.4c-2.1,2.6-4.3,5.1-6.5,7.6c1,0,1.9,0,2.9,0c0-0.6-0.1-1.1-0.1-1.8c0,0,0.5,0,1-0.1
					c-0.1-0.2-0.2-0.4-0.3-0.6c0.2-0.1,0.3-0.3,0.5-0.4c0.6,0.7,1.2,1.4,2,2.4c0.7-1.1,1.4-2.4,2.2-3.6c-0.2-0.1-0.4-0.2-0.6-0.3
					c0.4-0.4,0.8-0.9,1.3-1.4c0.1,0.3,0.1,0.6,0.3,1.4c0.3-1.1,0.5-1.7,0.7-2.3c0.1,0,0.2,0.1,0.3,0.1c-0.4,1-0.9,2.1-1.3,3.2
					c0.5,0,0.9-0.1,1.4-0.1c-0.5,0.6-0.9,1-1.2,1.5c0.1,0.2,0.2,0.4,0.3,0.5c1.1-0.6,2.2-1.2,3.3-1.7c0,0,0.1,0.1,0.1,0.1
					c-0.4,0.2-0.7,0.4-1.4,0.7c0.8,0.2,1.1,0.2,2,0.5c-1.2,0.2-1.7,0.3-2.4,0.4c0.1,0.2,0.2,0.6,0.3,1.2c-0.6-0.3-0.9-0.5-1.3-0.8
					c0,0.4,0,0.7,0.1,1c0.6,0,1.3,0,1.9,0c1.2-1.6,2.5-3.2,3.7-4.9c0.2,0.1,0.3,0.2,0.5,0.3c-1,1.5-2,3-3,4.5
					C106.8,255.2,108.7,255.2,110.5,255.2z M85.8,251.7c-0.7,1.1-1.8,1.9-2.8,2.8c-0.2-0.2-0.3-0.5-0.5-0.7c0.4-0.2,0.8-0.4,1.4-0.6
					l-2.1-1.5c0.8-0.7,1.6-1.5,2.4-2.2C84.7,250.2,85.9,251.4,85.8,251.7z M102.5,231.7c-0.1,0.6-0.3,1.2-0.6,1.7
					c-0.3,0.5-0.8,1-1.3,1c-0.3,0-0.7-0.8-0.7-0.8c-0.8-0.7-1.2-1-1.7-1.4c0.8-0.9,1.6-1.9,2.4-2.8c0.2,0.2,0.4,0.5,0.3,0.4
					c0.8-0.4,1.5-0.8,2.3-1.2C102.9,229.7,102.7,230.7,102.5,231.7z"/>
				<linearGradient id="SVGID_22_" gradientUnits="userSpaceOnUse" x1="88.4282" y1="244.3834" x2="106.6699" y2="244.3834">
					<stop  offset="0" style="stop-color:#FF00FF"/>
					<stop  offset="0.3811" style="stop-color:#FD00FE"/>
					<stop  offset="0.5184" style="stop-color:#F601F9"/>
					<stop  offset="0.6163" style="stop-color:#EA02F1"/>
					<stop  offset="0.6955" style="stop-color:#DA03E6"/>
					<stop  offset="0.7633" style="stop-color:#C405D7"/>
					<stop  offset="0.8233" style="stop-color:#A808C4"/>
					<stop  offset="0.8777" style="stop-color:#880AAE"/>
					<stop  offset="0.9276" style="stop-color:#620E94"/>
					<stop  offset="0.972" style="stop-color:#391178"/>
					<stop  offset="1" style="stop-color:#1B1464"/>
				</linearGradient>
				<path fill="url(#SVGID_22_)" d="M105.7,233.6c-1.3,2.1-2.5,4.3-4.1,6.3c-3.9,4.8-8.1,9.3-12.2,14c-0.4,0.4-0.6,0.9-0.9,1.4
					c0.8,0,1.6,0,2.4,0c4.4-5.4,8.9-10.8,13.3-16.2c0.8-0.9,1.4-2,2.5-2.6C106.1,235.3,105.6,234.5,105.7,233.6z"/>
				<path d="M90.1,196.4C90.1,196.4,90.1,196.4,90.1,196.4c0.1,0.1,0.2,0.1,0.3,0.2C90.3,196.5,90.2,196.4,90.1,196.4z"/>
				<path d="M80,247.3c0-0.1,0.1-0.3,0.2-0.4c0-0.6-0.1-1.2-0.1-1.7L80,247.3z"/>
				<linearGradient id="SVGID_23_" gradientUnits="userSpaceOnUse" x1="80.8473" y1="218.1761" x2="101.4174" y2="218.1761">
					<stop  offset="0" style="stop-color:#662D91"/>
					<stop  offset="1" style="stop-color:#1B1464"/>
				</linearGradient>
				<path fill="url(#SVGID_23_)" d="M100.8,215.7c0.3,0.3,0.3,0.7,0.3,1c0.1,0,0.2,0,0.3,0c0.1-2.3-0.3-4.8-0.3-7.1
					c0-1.7,0.3-3.4,0.3-5.1c0-1.4-0.2-2.8-0.6-4c-0.3-0.9-1.4-1.7-1.6-2.6c-0.8-3.9-4.1-2.3-6.3-3.1c-0.5-0.2-1-0.4-1.6-0.7
					c-0.3,0.6-0.7,1.5-1.2,2.4c0,0,0,0,0,0c0,0,0,0,0,0c0.1,0.1,0.2,0.1,0.3,0.2c3.1,1.6,6.1,3.1,9.2,4.7c-0.1,0.3-0.3,0.5-0.4,0.8
					c-0.1-0.1-0.2-0.2-0.4-0.2c0.1,0.8,1.4,1.6,1.3,2.4c0.1,0,0.1,0.1,0.2,0.1c-0.1,0.1-0.2,0.3-0.2,0.4c-0.1,0-0.1-0.1-0.2-0.1
					c0,0,0,0,0,0c0,0,0,0,0,0c-3.7-2-7.5-4.1-11.4-6.2c-0.6,1.5-2.1,3.7-1.7,4.2c2.6,3.1,5.7,6,8.6,8.8c0.6,0.5,1.4,0.8,2.1,1.2
					c-0.1,0.2-0.2,0.4-0.4,0.6c-1.8-1.1-3.6-2.2-5.4-3.3c0.2,0.7,0.5,1.5,0.5,1.5c-0.7,1.8-1.2,2.9-1.9,4.5c1-0.5,1.5-0.7,1.9-1
					c0.5-0.3,1-0.6,1.9-1.1c-9.6,7.5-10.7,18.4-13.3,28.5c6.4-8.7,15.4-15.4,19.5-25.7c-0.1,0-0.3,0-0.5,0c0.2,0,0.4,0,0.5,0
					c0.1-0.2,0.2-0.4,0.2-0.6c-0.1,0.2-0.1,0.4-0.2,0.6c0.3,0,0.5,0,0.7,0C101.1,216.4,101.2,216,100.8,215.7z M97.6,217
					c0,0-0.5,0.5-1,1.2c-0.1-1.2-0.1-2.2-0.2-3.5c0,0,0,0-0.1,0c-0.4,0.7-0.7,1-0.9,1.3c-0.3-0.3-0.5-0.6-0.8-0.9
					c0.6-0.1,1.2-0.2,1.7-0.4c0,0,0,0,0.1-0.1c0,0,0,0,0,0.1c0.5-0.1,0.9-0.2,1.3-0.3C97.7,215.2,97.7,215.8,97.6,217z"/>
				<path fill="#662D91" d="M101.1,216.7c-0.1,0.5-0.4,0.9,0.3,1c0-0.3,0-0.6,0.1-1C101.3,216.7,101.1,216.7,101.1,216.7z"/>
				<linearGradient id="SVGID_24_" gradientUnits="userSpaceOnUse" x1="80.0512" y1="231.7782" x2="101.3301" y2="231.7782">
					<stop  offset="0" style="stop-color:#FF00FF"/>
					<stop  offset="0.3811" style="stop-color:#FD00FE"/>
					<stop  offset="0.5184" style="stop-color:#F601F9"/>
					<stop  offset="0.6163" style="stop-color:#EA02F1"/>
					<stop  offset="0.6955" style="stop-color:#DA03E6"/>
					<stop  offset="0.7633" style="stop-color:#C405D7"/>
					<stop  offset="0.8233" style="stop-color:#A808C4"/>
					<stop  offset="0.8777" style="stop-color:#880AAE"/>
					<stop  offset="0.9276" style="stop-color:#620E94"/>
					<stop  offset="0.972" style="stop-color:#391178"/>
					<stop  offset="1" style="stop-color:#1B1464"/>
				</linearGradient>
				<path fill="url(#SVGID_24_)" d="M101.1,216.7c-0.2,0-0.4,0-0.7,0c-3.3,11.6-14,17.9-20.3,27.9l0,0.6c0.1,0.6,0.1,1.1,0.1,1.7
					c0-0.1,0.1-0.1,0.1-0.2c3.5-4,7-8.1,10.5-12.1c4.1-4.8,9.1-9,10.3-15.6c0.1-0.5,0.1-0.9,0.2-1.4
					C100.6,217.5,100.9,217.1,101.1,216.7z"/>
				<linearGradient id="SVGID_25_" gradientUnits="userSpaceOnUse" x1="89.0512" y1="200.2934" x2="100.0764" y2="200.2934">
					<stop  offset="0" style="stop-color:#FF00FF"/>
					<stop  offset="1" style="stop-color:#1B1464"/>
				</linearGradient>
				<path fill="url(#SVGID_25_)" d="M98.8,201.8c-2.8-1.7-5.6-3.5-8.4-5.2c-0.1-0.1-0.2-0.1-0.3-0.2c-0.4,0.5-0.8,1-1,1.4
					c3.8,2.2,7.4,4.3,11,6.4C100.2,203.4,98.9,202.6,98.8,201.8z"/>
				<path d="M83.8,253.1c-0.7-0.5-1.4-1-2.1-1.5L83.8,253.1z"/>
				<path d="M96.4,214.6C96.4,214.6,96.4,214.6,96.4,214.6C96.4,214.6,96.4,214.6,96.4,214.6C96.4,214.6,96.4,214.6,96.4,214.6z"/>
				<path d="M149.1,95.9c0.1,0.6,0.2,1.2,0.3,1.8c-2.5-2.3-1.2,1.9-1.4,3.8c-0.1,1.6-0.2,3.2-0.7,4.8c-0.9,3-2.3,5.7-6.1,4.5
					c-5.8-1.8-1-9.8-4.5-11.9c-0.2,2.5-0.8,3.3-1.6,2.3c0.3,0.3-3.7,5-3.5,4.2c-0.3-0.6-0.7-0.5-1.2,0.3c0.6,1.1,1.3,2.2,1.9,3.3
					c-2.9,0.3-5.9,0.6-8.8,0.9c1.3-0.9,2.6-1.9,3.9-2.8c-3.6,0.4-7.3,0.7-10.9,1.1c-0.1-2.1-6.9-1.5-8.9-1.3c0.5,2.6,0.5,3.5-0.4,6
					c0.4-0.5,0.7-1,1.1-1.5c-0.3,4-3.5,4.4-1.1,8.1c0.6,1,3,1.4,4,2.9c1.2,1.8,0.8,4.2,2.4,6.1c-0.2-0.5-0.4-1.1-0.6-1.6
					c1.8,1.2,5.7,2.5,5.8,5c0.2,2.8-1.6,4.5-3,1.2c-2.2,2.7-1.6,2.1-2.9-0.3c0,3.1,2.3,4,5,2.1c-0.3,0.7-3.7,6.8-3.3,7
					c-1.3-0.8-3.2,4.8-1.8,2.1c0.7,0.6-2.1,2.7-2.6,3.1c3.3,0-4.3,7.4-5.1,8.7c-0.7-0.4,0.7-2.1-1.4-1.5c-1.6,0.4-2.1,3.5-3.5,1.3
					c1.3-0.3,2.3-1.1,3-2.4c-1.3,0.4-5.4,1.5-6.9-1.1c-0.6,0.9-1.2,1.7-1.8,2.6c0.5-2.1,0.2-4.3,2.3-3.1c-1.4-3.3-3-3.2-6.4-4
					c0.6,1.5-1.7,0.7-2.9,0.6c1.2,3.5-0.3,1.7,1.9,5.1c-7.1-2.9-9.5-10.1-13.4-16.2c0.1,0.6,0.4,0.8,0.7,0.5c-1.4-2.7-0.7-2.1,2-2.7
					c2.7-0.7,10.4-0.7,10.4,1.9c-0.8-0.1-8.2-0.6-8.2-0.5c2.9,4.2,4.5,4.5,9.2,5.7c2.3,0.6,10.2,3.2,12.4,0.8
					c4.8-5.1-11.7-3.4-11-6.5c4.4,1,8.8-0.3,13.2-0.2c4.1,0.1,4.7-2.2,1-0.8c3-2.7-5.7-1.1-5.3-4.9c0.3-2.8,1.9-2.5,1.8-6
					c-0.1-2-1-4.1-1.4-6.1c-0.1,1-0.3,2-0.4,3c-0.4-3.1,0.8-3.4,0.9-7.1c0.1-2.1-0.5-4.5-0.2-6.5c0.7-3.8,1.1-3.8,4.8-6.4
					c-1.2-0.4,0.1-1.4,0.7-2.4c-0.6,0.5-1.8,2-2.7,1.6c3.3-5.6,4.9-6.1,11.3-8.2c0.8-0.3,13.5-3.6,13.5-3c0,0.1,5,0.9,5.6-0.4
					c0.7-1.8-1.9-3-1.5-4.6c-0.2,1.2-0.8,0.7-1.7-1.4c0.5,1.4,0.4,2-0.5,2c-0.2-3-3.1-5.7-0.9-7.9c-1.8-0.7-7-4.5-8.2-3.4
					c0.2-1.4-0.2-9.4-2.5-9.9c-0.3-0.2-6.3,2.7-7.6,3.1c-3.3,1-5.6,1.1-8.8-0.2c-7-2.9-10.9-7.5-18.6-7.6
					c-5.2-0.1-14.9-1.8-17.8,3.9c-2.4,4.7,4.3,12.6-2,16.3c1.8,1.5-2.9,5.4-4.7,5.7c1.1,0.7-0.6,3.6-0.8,4.1
					c-1.7,5.6-2.6,11.6-3.9,17.3c-1.5-1.2-1.8,0.5-2.8,1.8c-1.2-3.5-3.4-16.8-4.3-6.8C42.3,95.6,41,86,42.7,78.9
					c1.2-5,4.1-9.3,5.5-14.1c0.8-2.7,1-7.5,1.3-11c0.4,1.6,2.7-10,2.9-10.7c1.5-7,5.5-10.4,10.4-15c-2.1,1.4-2.3,1.1-0.6-0.8
					c-0.1,0.1-2.9,2.3-3.3,1.9c1.2-1,8-5.9,7.2-6.9c-1.4,1.1-2.9,2.2-4.3,3.3C60.8,24,78.9,14.4,82,16.5c-0.7-0.2-0.9-0.5-0.4-1
					c1.3,0.5,2.6,1,3.9,1.5c1,0.7,1.9,0.6,2.9-0.3c1.4,0.3,2,2.1,3.2,2.1c1.1,0,0.3-2.2,0.8-2.6c0.8-0.6,6.6,3,3.4-0.7
					c3.7,0.2,6.6-0.5,10.1-0.1c4.6,0.5,9.6,3.2,13.8,4.9c9,3.7,16.1,8.9,23,15.6c-0.5,0-1.1,0.1-1.6,0.1c1.7,2.1,2.2,3.9-0.2,3.9
					c1.8,0.8,1.7,1.8-0.2,2.8c2-0.3,1.9,1.4,4,3.6c-2.7,0.2,1.8,1.9,2,2.2c2.8,3.5,3.9,7.6,2.3,12.3c2-2.1,2,1-0.3,0.2
					c1.7,3.1,4.1,7.3,4.3,10c0.2,2.8-0.1,5.8-0.2,8.2c-0.1,1.4-0.1,6.2-0.4,7.5C151.6,91,149.5,91.8,149.1,95.9
					C149.2,96.5,149.2,95.1,149.1,95.9z M112.8,101.7c4.2,0,13.7,2.3,16.4-1.9c-3.1,0.4-4.6-2.2-8.5-1.6
					C119.1,98.5,113.3,99.5,112.8,101.7C115.1,101.7,113.2,99.9,112.8,101.7z M106.8,141.1c-1.3-0.2,0.9-2.2-1.6-2.8
					c-1.3-0.3-2.3,1.3-1.6,2.5c2.4,3.6,6.2,1.3,4.1-2.8C107.2,138.9,106.9,140,106.8,141.1C106.7,141.1,106.9,140.6,106.8,141.1z
					 M110.6,104.9c1.3,0.3,2.7,0.6,4,0.9C113.8,101.7,113.4,103.2,110.6,104.9C111.8,105.2,111.6,104.3,110.6,104.9z"/>
				<path d="M66.7,95.6c0.9,0.8,1.2,1,0.9,0.8c-0.6,0.8-1.3,1.8-2.1,2.7c-0.2,0.2-1,0.2-1.1,0c-0.3-0.6-0.5-1.3-0.5-2
					C63.9,96.6,64,96,64,95.4c0.6-0.8,1.3-1.8,2.1-2.9c0,0-0.3-0.3-0.8-0.8c9-2.1,17,0.7,25.1,2.9c-0.2,0.8-0.1,0.5,0,0.2
					c0.1,0,0.2,0,0.3,0c0,1.4,0,2.7,0,3.6c-1.3,0.1-2,0.2-3,0.3c0.2,0.2,0,0-0.3-0.4c-0.1,0.5-0.2,0.9-0.2,0.9
					C80.6,98,74.1,96.9,66.7,95.6z"/>
				<path d="M71.5,101.1c-0.2,0-0.4-0.1-0.6-0.1c0-0.3,0.1-0.7,0.1-1c6.4,0.8,12.7,1.7,19.2,2.5c-0.2,0.3-0.4,0.6-0.4,0.6
					c0.4,0.5,0.9,1,1.7,1.9c-0.1,0.2-0.2,1.4-0.7,1.6c-0.7,0.3-1.7-0.2-2.8-0.4c-1.7,1.9-7,1.4-8.3-1.2c-0.3,0.2-0.6,0.5-0.3,0.2
					c-1.4,0.1-2.1,0.1-2.9,0.2c0,0-0.1-0.4-0.3-0.5c-1.8-0.5-3.6-0.9-5.4-1.2c-0.6-0.1-1.2,0.1-1.8,0c-0.6-0.1-1.1-0.5-1.5-0.9
					c0,0,0.2-0.7,0.5-0.8c0.9-0.3,1.8-0.6,2.8-0.8c0.2-0.1,0.5,0,0.8,0.1C71.4,101.2,71.5,101.1,71.5,101.1z"/>
				<path d="M70,135.5c-1.3-2.8,1.5-6.7,7.4-10c-0.7,0.9-1.2,1.5-1.7,2.2c0.7,0.3,1.3,0.6,2.2,1C73.9,129.3,73.9,129.3,70,135.5z"/>
				<path d="M149.1,95.9c0.1-0.8,0.1-1.6,0.2-2.4c0.3-0.2,0.6-0.4,1-0.6c0.2,0.4,0.5,0.8,0.5,1.1c0,1.3-0.1,2.6-0.2,4.8
					C149.8,97.3,149.4,96.6,149.1,95.9z"/>
				<path d="M89,130.3c-0.7-0.9-1.4-1.6-2-2.4c0.1-0.2,0.3-0.4,0.4-0.5c1.3,0.6,2.6,1.2,3.9,1.8c-0.1,0.2-0.1,0.3-0.2,0.5
					c-0.7-0.1-1.3-0.2-2-0.3C89.1,129.6,89,129.9,89,130.3z"/>
				<path d="M51.3,44.3c-0.4,1.9-0.8,3.7-1.2,5.6c-0.3-0.1-0.6-0.1-0.9-0.2c0.5-1.8,0.9-3.7,1.4-5.5C50.8,44.2,51,44.2,51.3,44.3z"
					/>
				<path d="M132.6,132.3c-0.4,1.5-0.8,3.1-1.2,4.6c-0.3-0.1-0.5-0.1-0.8-0.2c0.4-1.5,0.8-3,1.2-4.5
					C132.1,132.2,132.4,132.2,132.6,132.3z"/>
			</g>
		</g>
	</g>
	<path fill="#FFFFFF" d="M110.6,104.9c0.4-0.2,0.9-0.6,1.4-0.9c0.3-0.2,0.5-0.4,0.8-0.5c1.2-0.6,1.2-0.5,1.4,0.8
		c0,0.1,0,0.2,0.1,0.4c0.2,1.1,0.1,1.3-1,1C112.3,105.4,111.4,105.1,110.6,104.9z"/>
	<path fill="#FFFFFF" d="M82.4,104.2c-0.3-0.2-0.8-0.4-0.8-0.6c-0.1-0.5,0.4-1.1,0.9-1c0.5,0.1,1.1,0.3,1.1,0.9
		C83.6,103.8,82.9,104,82.4,104.2z"/>
</g>
</svg>
